<?xml version="1.0" encoding="iso-8859-1"?>
<!-- Uploaded to: SVG Repo, www.svgrepo.com, Generator: SVG Repo Mixer Tools -->
<!DOCTYPE svg PUBLIC "-//W3C//DTD SVG 1.1//EN" "http://www.w3.org/Graphics/SVG/1.1/DTD/svg11.dtd">
<svg fill="#000000" height="800px" width="800px" version="1.1" id="Capa_1" xmlns="http://www.w3.org/2000/svg" xmlns:xlink="http://www.w3.org/1999/xlink" 
	 viewBox="0 0 297 297" xml:space="preserve">
<path d="M282.677,89.087l-75.14-56.737C196.662,13.061,175.999,0,152.333,0H72.469C37.533,0,9.111,28.435,9.111,63.389v220.574
	c0,7.2,5.837,13.037,13.036,13.037h180.499c7.199,0,13.036-5.837,13.036-13.037v-9.529c30.591-4.472,54.157-30.888,54.157-62.718
	V111.55c1.608,0.672,3.311,1.001,5.002,1.001c3.963,0,7.876-1.8,10.436-5.213C289.6,101.58,288.435,93.408,282.677,89.087z
	 M72.469,26.072h79.864c20.555,0,37.277,16.74,37.277,37.316V122.6h-36.75c-21.613-21.381-55.313-43.192-63.839-48.58
	c-3.545-2.242-7.954-2.641-11.845-1.067c-3.892,1.57-6.787,4.919-7.783,8.994c-1.417,5.804-5.222,22.071-8.124,40.653H35.184V63.389
	C35.184,42.813,51.91,26.072,72.469,26.072z M145.72,179.383c-1.636,3.818-3.977,7.202-6.879,10.028l-13.034-28.757
	c-2.972-6.556-10.696-9.463-17.255-6.492c-6.559,2.973-9.465,10.697-6.493,17.255l12.222,26.964
	c-12.626-0.791-24.06-8.817-28.866-20.495c-4.418-10.729-0.258-43.763,5.282-71.497c23.869,16.46,50.656,37.819,55.12,48.65
	C149.084,162.968,149.05,171.614,145.72,179.383z M35.184,270.928V148.672h22.998c-1.13,15.416-0.675,29.912,3.123,39.139
	c9.183,22.307,30.778,36.721,55.02,36.721c3.185,0,6.34-0.271,9.454-0.777l4.94,10.898c2.182,4.811,6.921,7.656,11.882,7.656
	c1.799,0,3.629-0.374,5.374-1.165c6.558-2.972,9.464-10.698,6.492-17.255l-4.504-9.937c8.658-6.057,15.471-14.38,19.722-24.301
	c5.613-13.099,6.128-27.509,1.561-40.979h18.365v122.256H35.184z M215.683,247.886V71.41l28.085,21.075v119.23
	C243.768,229.118,231.807,243.773,215.683,247.886z"/>
</svg>